<mxfile host="app.diagrams.net" modified="2024-04-10T07:12:30.863Z" agent="Mozilla/5.0 (Macintosh; Intel Mac OS X 10_15_7) AppleWebKit/537.36 (KHTML, like Gecko) Chrome/123.0.0.0 Safari/537.36" etag="k5OGzNVH9nTI48d1b4qo" version="24.2.3" type="github">
  <diagram name="第 1 页" id="PdB2kwuyyB1b3Qyq9fKb">
    <mxGraphModel dx="1026" dy="663" grid="1" gridSize="10" guides="1" tooltips="1" connect="1" arrows="1" fold="1" page="1" pageScale="1" pageWidth="827" pageHeight="1169" math="0" shadow="0">
      <root>
        <mxCell id="0" />
        <mxCell id="1" parent="0" />
        <mxCell id="kJssEVPsZuT1Y1IidYSU-4" value="Pool" style="swimlane;childLayout=stackLayout;resizeParent=1;resizeParentMax=0;startSize=20;html=1;" vertex="1" parent="1">
          <mxGeometry x="70" y="100" width="479.99999999999955" height="700" as="geometry" />
        </mxCell>
        <mxCell id="kJssEVPsZuT1Y1IidYSU-5" value="淘宝SDK" style="swimlane;startSize=20;html=1;" vertex="1" parent="kJssEVPsZuT1Y1IidYSU-4">
          <mxGeometry y="20" width="139.99999999999955" height="680" as="geometry" />
        </mxCell>
        <mxCell id="kJssEVPsZuT1Y1IidYSU-22" value="查询礼金使用情况" style="rounded=1;whiteSpace=wrap;html=1;" vertex="1" parent="kJssEVPsZuT1Y1IidYSU-5">
          <mxGeometry x="30" y="50" width="80" height="30" as="geometry" />
        </mxCell>
        <mxCell id="kJssEVPsZuT1Y1IidYSU-6" value="礼金服务" style="swimlane;startSize=20;html=1;" vertex="1" parent="kJssEVPsZuT1Y1IidYSU-4">
          <mxGeometry x="139.99999999999955" y="20" width="230" height="680" as="geometry" />
        </mxCell>
        <mxCell id="kJssEVPsZuT1Y1IidYSU-8" value="报表统计" style="rounded=1;whiteSpace=wrap;html=1;" vertex="1" parent="kJssEVPsZuT1Y1IidYSU-6">
          <mxGeometry x="75.00000000000045" y="50" width="80" height="30" as="geometry" />
        </mxCell>
        <mxCell id="kJssEVPsZuT1Y1IidYSU-36" style="edgeStyle=orthogonalEdgeStyle;rounded=0;orthogonalLoop=1;jettySize=auto;html=1;exitX=1;exitY=0.5;exitDx=0;exitDy=0;" edge="1" parent="kJssEVPsZuT1Y1IidYSU-6" source="kJssEVPsZuT1Y1IidYSU-27" target="kJssEVPsZuT1Y1IidYSU-35">
          <mxGeometry relative="1" as="geometry" />
        </mxCell>
        <mxCell id="kJssEVPsZuT1Y1IidYSU-37" value="否" style="edgeLabel;html=1;align=center;verticalAlign=middle;resizable=0;points=[];" vertex="1" connectable="0" parent="kJssEVPsZuT1Y1IidYSU-36">
          <mxGeometry x="0.0316" relative="1" as="geometry">
            <mxPoint as="offset" />
          </mxGeometry>
        </mxCell>
        <mxCell id="kJssEVPsZuT1Y1IidYSU-39" style="edgeStyle=orthogonalEdgeStyle;rounded=0;orthogonalLoop=1;jettySize=auto;html=1;exitX=0.5;exitY=1;exitDx=0;exitDy=0;" edge="1" parent="kJssEVPsZuT1Y1IidYSU-6" source="kJssEVPsZuT1Y1IidYSU-27" target="kJssEVPsZuT1Y1IidYSU-38">
          <mxGeometry relative="1" as="geometry" />
        </mxCell>
        <mxCell id="kJssEVPsZuT1Y1IidYSU-40" value="是" style="edgeLabel;html=1;align=center;verticalAlign=middle;resizable=0;points=[];" vertex="1" connectable="0" parent="kJssEVPsZuT1Y1IidYSU-39">
          <mxGeometry x="-0.2667" y="1" relative="1" as="geometry">
            <mxPoint as="offset" />
          </mxGeometry>
        </mxCell>
        <mxCell id="kJssEVPsZuT1Y1IidYSU-27" value="是否存在未使用礼金" style="rhombus;whiteSpace=wrap;html=1;" vertex="1" parent="kJssEVPsZuT1Y1IidYSU-6">
          <mxGeometry x="85" y="100" width="60" height="60" as="geometry" />
        </mxCell>
        <mxCell id="kJssEVPsZuT1Y1IidYSU-35" value="不用处理" style="rounded=1;whiteSpace=wrap;html=1;" vertex="1" parent="kJssEVPsZuT1Y1IidYSU-6">
          <mxGeometry x="140.00000000000045" y="190" width="80" height="30" as="geometry" />
        </mxCell>
        <mxCell id="kJssEVPsZuT1Y1IidYSU-43" style="edgeStyle=orthogonalEdgeStyle;rounded=0;orthogonalLoop=1;jettySize=auto;html=1;exitX=0.5;exitY=1;exitDx=0;exitDy=0;entryX=0.5;entryY=0;entryDx=0;entryDy=0;" edge="1" parent="kJssEVPsZuT1Y1IidYSU-6" source="kJssEVPsZuT1Y1IidYSU-38" target="kJssEVPsZuT1Y1IidYSU-41">
          <mxGeometry relative="1" as="geometry" />
        </mxCell>
        <mxCell id="kJssEVPsZuT1Y1IidYSU-38" value="查找退回流水记录" style="rounded=1;whiteSpace=wrap;html=1;" vertex="1" parent="kJssEVPsZuT1Y1IidYSU-6">
          <mxGeometry x="75.00000000000045" y="250" width="80" height="30" as="geometry" />
        </mxCell>
        <mxCell id="kJssEVPsZuT1Y1IidYSU-42" style="edgeStyle=orthogonalEdgeStyle;rounded=0;orthogonalLoop=1;jettySize=auto;html=1;exitX=1;exitY=0.5;exitDx=0;exitDy=0;entryX=0.5;entryY=1;entryDx=0;entryDy=0;" edge="1" parent="kJssEVPsZuT1Y1IidYSU-6" source="kJssEVPsZuT1Y1IidYSU-41" target="kJssEVPsZuT1Y1IidYSU-35">
          <mxGeometry relative="1" as="geometry" />
        </mxCell>
        <mxCell id="kJssEVPsZuT1Y1IidYSU-44" value="是" style="edgeLabel;html=1;align=center;verticalAlign=middle;resizable=0;points=[];" vertex="1" connectable="0" parent="kJssEVPsZuT1Y1IidYSU-42">
          <mxGeometry x="0.0788" relative="1" as="geometry">
            <mxPoint as="offset" />
          </mxGeometry>
        </mxCell>
        <mxCell id="kJssEVPsZuT1Y1IidYSU-46" style="edgeStyle=orthogonalEdgeStyle;rounded=0;orthogonalLoop=1;jettySize=auto;html=1;exitX=0.5;exitY=1;exitDx=0;exitDy=0;entryX=0.5;entryY=0;entryDx=0;entryDy=0;" edge="1" parent="kJssEVPsZuT1Y1IidYSU-6" source="kJssEVPsZuT1Y1IidYSU-41" target="kJssEVPsZuT1Y1IidYSU-45">
          <mxGeometry relative="1" as="geometry" />
        </mxCell>
        <mxCell id="kJssEVPsZuT1Y1IidYSU-41" value="对比是否已经退回" style="rhombus;whiteSpace=wrap;html=1;" vertex="1" parent="kJssEVPsZuT1Y1IidYSU-6">
          <mxGeometry x="85" y="320" width="60" height="60" as="geometry" />
        </mxCell>
        <mxCell id="kJssEVPsZuT1Y1IidYSU-56" style="edgeStyle=orthogonalEdgeStyle;rounded=0;orthogonalLoop=1;jettySize=auto;html=1;exitX=0.5;exitY=1;exitDx=0;exitDy=0;entryX=0.5;entryY=0;entryDx=0;entryDy=0;" edge="1" parent="kJssEVPsZuT1Y1IidYSU-6" source="kJssEVPsZuT1Y1IidYSU-45" target="kJssEVPsZuT1Y1IidYSU-50">
          <mxGeometry relative="1" as="geometry" />
        </mxCell>
        <mxCell id="kJssEVPsZuT1Y1IidYSU-45" value="计算退回金额" style="rounded=1;whiteSpace=wrap;html=1;" vertex="1" parent="kJssEVPsZuT1Y1IidYSU-6">
          <mxGeometry x="75.00000000000045" y="410" width="80" height="30" as="geometry" />
        </mxCell>
        <mxCell id="kJssEVPsZuT1Y1IidYSU-50" value="创建退回记录" style="rounded=1;whiteSpace=wrap;html=1;" vertex="1" parent="kJssEVPsZuT1Y1IidYSU-6">
          <mxGeometry x="75.00000000000045" y="480" width="80" height="30" as="geometry" />
        </mxCell>
        <mxCell id="kJssEVPsZuT1Y1IidYSU-53" value="" style="ellipse;html=1;shape=endState;fillColor=#000000;strokeColor=#ff0000;" vertex="1" parent="kJssEVPsZuT1Y1IidYSU-6">
          <mxGeometry x="100.00000000000045" y="600" width="30" height="30" as="geometry" />
        </mxCell>
        <mxCell id="kJssEVPsZuT1Y1IidYSU-60" style="edgeStyle=orthogonalEdgeStyle;rounded=0;orthogonalLoop=1;jettySize=auto;html=1;exitX=0.5;exitY=1;exitDx=0;exitDy=0;entryX=0.5;entryY=0;entryDx=0;entryDy=0;" edge="1" parent="kJssEVPsZuT1Y1IidYSU-6" source="kJssEVPsZuT1Y1IidYSU-58" target="kJssEVPsZuT1Y1IidYSU-53">
          <mxGeometry relative="1" as="geometry" />
        </mxCell>
        <mxCell id="kJssEVPsZuT1Y1IidYSU-58" value="更新退回状态" style="rounded=1;whiteSpace=wrap;html=1;" vertex="1" parent="kJssEVPsZuT1Y1IidYSU-6">
          <mxGeometry x="75.00000000000045" y="550" width="80" height="30" as="geometry" />
        </mxCell>
        <mxCell id="kJssEVPsZuT1Y1IidYSU-19" value="支付服务" style="swimlane;startSize=20;html=1;" vertex="1" parent="kJssEVPsZuT1Y1IidYSU-4">
          <mxGeometry x="369.99999999999955" y="20" width="110" height="680" as="geometry" />
        </mxCell>
        <mxCell id="kJssEVPsZuT1Y1IidYSU-47" value="退回指定余额" style="rounded=1;whiteSpace=wrap;html=1;" vertex="1" parent="kJssEVPsZuT1Y1IidYSU-19">
          <mxGeometry x="15.000000000000455" y="480" width="80" height="30" as="geometry" />
        </mxCell>
        <mxCell id="kJssEVPsZuT1Y1IidYSU-23" value="" style="edgeStyle=orthogonalEdgeStyle;rounded=0;orthogonalLoop=1;jettySize=auto;html=1;" edge="1" parent="kJssEVPsZuT1Y1IidYSU-4" source="kJssEVPsZuT1Y1IidYSU-8" target="kJssEVPsZuT1Y1IidYSU-22">
          <mxGeometry relative="1" as="geometry" />
        </mxCell>
        <mxCell id="kJssEVPsZuT1Y1IidYSU-28" style="edgeStyle=orthogonalEdgeStyle;rounded=0;orthogonalLoop=1;jettySize=auto;html=1;exitX=0.5;exitY=1;exitDx=0;exitDy=0;entryX=0;entryY=0.5;entryDx=0;entryDy=0;" edge="1" parent="kJssEVPsZuT1Y1IidYSU-4" source="kJssEVPsZuT1Y1IidYSU-22" target="kJssEVPsZuT1Y1IidYSU-27">
          <mxGeometry relative="1" as="geometry" />
        </mxCell>
        <mxCell id="kJssEVPsZuT1Y1IidYSU-57" style="edgeStyle=orthogonalEdgeStyle;rounded=0;orthogonalLoop=1;jettySize=auto;html=1;exitX=1;exitY=0.5;exitDx=0;exitDy=0;entryX=0;entryY=0.5;entryDx=0;entryDy=0;" edge="1" parent="kJssEVPsZuT1Y1IidYSU-4" source="kJssEVPsZuT1Y1IidYSU-50" target="kJssEVPsZuT1Y1IidYSU-47">
          <mxGeometry relative="1" as="geometry" />
        </mxCell>
        <mxCell id="kJssEVPsZuT1Y1IidYSU-59" style="edgeStyle=orthogonalEdgeStyle;rounded=0;orthogonalLoop=1;jettySize=auto;html=1;exitX=0.5;exitY=1;exitDx=0;exitDy=0;entryX=1;entryY=0.5;entryDx=0;entryDy=0;" edge="1" parent="kJssEVPsZuT1Y1IidYSU-4" source="kJssEVPsZuT1Y1IidYSU-47" target="kJssEVPsZuT1Y1IidYSU-58">
          <mxGeometry relative="1" as="geometry" />
        </mxCell>
      </root>
    </mxGraphModel>
  </diagram>
</mxfile>
